<svg width="24" height="24" viewBox="0 0 24 24" fill="none" xmlns="http://www.w3.org/2000/svg">
<path d="M12 0C18.6275 0 24 5.37258 24 12C24 18.6275 18.6275 24 12 24C5.37258 24 0 18.6275 0 12C7.27722e-06 5.37258 5.37258 7.277e-06 12 0ZM11.6475 7.43359C10.5486 7.43361 9.49444 7.87016 8.7168 8.64648L3.87988 13.4912C3.493 13.8799 3.27543 14.4057 3.27539 14.9541C3.2755 15.5025 3.49292 16.0294 3.87988 16.418C4.07182 16.61 4.29999 16.7623 4.55078 16.8662C4.80179 16.9703 5.07106 17.0244 5.34277 17.0244C5.61449 17.0244 5.88374 16.9703 6.13477 16.8662C6.38575 16.7622 6.6146 16.6102 6.80664 16.418L14.5771 8.64648C13.7996 7.87028 12.7461 7.43366 11.6475 7.43359ZM18.6572 6.97754C18.3854 6.97755 18.1153 7.03069 17.8643 7.13477C17.6134 7.23884 17.3854 7.39182 17.1934 7.58398L9.42188 15.3555C10.1994 16.1317 11.2538 16.5674 12.3525 16.5674C13.4512 16.5674 14.5057 16.1316 15.2832 15.3555L20.1201 10.5107C20.3123 10.3188 20.4653 10.0907 20.5693 9.83984C20.6734 9.58896 20.7265 9.31945 20.7266 9.04785C20.7266 8.77631 20.6733 8.50674 20.5693 8.25586C20.4653 8.00484 20.3124 7.77604 20.1201 7.58398C19.9281 7.39179 19.7001 7.23883 19.4492 7.13477C19.1982 7.03074 18.9289 6.9776 18.6572 6.97754Z" fill="#ffffff"/>
</svg>
